<?xml version="1.0" encoding="utf-8"?>
<!-- Generator: Adobe Illustrator 23.0.3, SVG Export Plug-In . SVG Version: 6.00 Build 0)  -->
<svg version="1.1" id="圖層_1" xmlns="http://www.w3.org/2000/svg" xmlns:xlink="http://www.w3.org/1999/xlink" x="0px" y="0px"
	 viewBox="0 0 55 55" style="enable-background:new 0 0 55 55;" xml:space="preserve">
<style type="text/css">
	.st0{clip-path:url(#SVGID_2_);}
	.st1{fill:#FFFFFF;}
</style>
<g id="mystic_x5F_light_x5F_rgb">
	<g>
		<g id="彩虹">
			<g>
				<g>
					<g>
						<g>
							<defs>
								<rect id="SVGID_1_" x="13.8" y="19.6" width="29.1" height="14.8"/>
							</defs>
							<clipPath id="SVGID_2_">
								<use xlink:href="#SVGID_1_"  style="overflow:visible;"/>
							</clipPath>
							<g class="st0">
								<path class="st1" d="M16.7,33.8c0-0.1,0-0.2,0-0.4s0-0.2,0.1-0.3c0.1-0.3-0.1,0.4,0,0.1c0-0.1,0.1-0.2,0.1-0.4
									c0.2-0.9,0.4-1.9,0.8-2.8c0.9-2.4,2.5-4.7,4.8-6c3.2-1.8,7.7-1.9,11-0.5c2.6,1.1,4.6,3.3,5.7,5.8c0.5,1.1,0.8,2.2,1,3.4
									c0.1,0.2,0.1,0.4,0.1,0.6c0.1,0.4,0-0.3,0,0.2c0,0.1,0,0.3,0.1,0.4c0.1,1.7,2.7,1.8,2.7,0c-0.2-4.8-2.9-9.9-7.2-12.2
									c-3.8-2-8.9-2.3-12.9-0.7c-3.3,1.3-5.8,3.8-7.2,7c-0.9,1.7-1.5,3.7-1.6,5.8C13.9,35.5,16.6,35.5,16.7,33.8L16.7,33.8z"/>
								<path class="st1" d="M20.3,33.8c0-0.1,0-0.1,0-0.2c-0.1,0.4,0-0.1,0.1-0.3c0.1-0.6,0.3-1.3,0.5-1.9c0.6-1.6,1.8-3.2,3.3-4.1
									c2.2-1.2,5.2-1.3,7.5-0.4c1.8,0.8,3.1,2.3,3.8,4c0.3,0.7,0.5,1.5,0.7,2.3c0,0.1,0.1,0.3,0.1,0.4c0.1,0.2-0.1-0.3,0,0.1
									c0,0.1,0,0.2,0,0.3c0.1,1.7,2.7,1.8,2.7,0c-0.2-3.6-2.2-7.4-5.4-9.1c-5.3-2.7-12.1-0.8-14.7,4.6c-0.6,1.4-1.1,2.9-1.3,4.4
									C17.5,35.6,20.2,35.6,20.3,33.8L20.3,33.8z"/>
								<path class="st1" d="M23.6,33.8c-0.1,0.7,0.1-0.2,0.1-0.4c0.2-0.5,0.3-0.9,0.6-1.4c0.9-1.5,2.3-2.1,4-2.1s3.1,0.7,3.9,2.1
									c0.2,0.4,0.4,0.8,0.5,1.3c0.1,0.2,0.1,0.4,0.1,0.5c0.1,0.3,0-0.2,0-0.1c0.2,1.6,2.6,1.6,2.5,0c-0.4-3.7-3.3-6.4-7-6.4
									s-6.7,2.7-7.1,6.4C21,35.4,23.5,35.4,23.6,33.8L23.6,33.8z"/>
							</g>
						</g>
					</g>
				</g>
			</g>
		</g>
	</g>
</g>
<g>
	<path class="st1" d="M28.9,17c0.1,0,0.4-0.1,0.6-0.3c0.1-0.1,0.2-0.4,0.3-0.6V7.7l1.4,1.4c0.3,0.3,0.8,0.3,1.1,0l1.5-1.5
		c0.3-0.3,0.3-0.8,0-1.1l-5.3-5.3c-0.3-0.3-0.8-0.3-1.1,0l-5.3,5.3c-0.3,0.3-0.3,0.8,0,1.1l1.5,1.5c0.3,0.3,0.8,0.3,1.1,0l1.4-1.4
		v8.5c0,0.4,0.4,0.8,0.8,0.8L28.9,17z"/>
	<path class="st1" d="M26.9,37.4c-0.4,0-0.8,0.4-0.8,0.8v8.5l-1.4-1.4c-0.3-0.3-0.8-0.3-1.1,0l-1.5,1.5c-0.3,0.3-0.3,0.8,0,1.1
		l5.3,5.3c0.3,0.3,0.8,0.3,1.1,0l5.3-5.3c0.3-0.3,0.3-0.8,0-1.1l-1.5-1.5c-0.3-0.3-0.8-0.3-1.1,0l-1.4,1.4l0-8.5
		c0-0.1-0.1-0.4-0.3-0.6c-0.1-0.1-0.4-0.2-0.6-0.3L26.9,37.4z"/>
</g>
</svg>
