<?xml version="1.0" encoding="utf-8"?>
<!-- Generator: Adobe Illustrator 23.0.3, SVG Export Plug-In . SVG Version: 6.00 Build 0)  -->
<svg version="1.1" id="Capa_1" xmlns="http://www.w3.org/2000/svg" xmlns:xlink="http://www.w3.org/1999/xlink" x="0px" y="0px"
	 viewBox="0 0 384 384" style="enable-background:new 0 0 384 384;" xml:space="preserve">
<style type="text/css">
	.st0{fill:#FFFFFF;}
</style>
<g>
	<g>
		<path class="st0" d="M351.7,181h-38c-4.2,0-7.6,3.4-7.6,7.6v60.8c0,4.2-3.4,7.6-7.6,7.6c-4.2,0-7.6-3.4-7.6-7.6V97.3
			c0-12.6-10.2-22.8-22.8-22.8c-12.6,0-22.8,10.2-22.8,22.8v212.9c0,4.2-3.4,7.6-7.6,7.6s-7.6-3.4-7.6-7.6V120.1
			c0-12.6-10.2-22.8-22.8-22.8s-22.8,10.2-22.8,22.8v106.4c0,4.2-3.4,7.6-7.6,7.6s-7.6-3.4-7.6-7.6V97.3c0-12.6-10.2-22.8-22.8-22.8
			s-22.8,10.2-22.8,22.8v182.5c0,4.2-3.4,7.6-7.6,7.6s-7.6-3.4-7.6-7.6V158.2c0-12.6-10.2-22.8-22.8-22.8s-22.8,10.2-22.8,22.8V181
			H32.3c-4.2,0-7.6,3.4-7.6,7.6s3.4,7.6,7.6,7.6h38c4.2,0,7.6-3.4,7.6-7.6v-30.4c0-4.2,3.4-7.6,7.6-7.6s7.6,3.4,7.6,7.6v121.6
			c0,12.6,10.2,22.8,22.8,22.8s22.8-10.2,22.8-22.8V97.3c0-4.2,3.4-7.6,7.6-7.6s7.6,3.4,7.6,7.6v129.3c0,12.6,10.2,22.8,22.8,22.8
			s22.8-10.2,22.8-22.8V120.1c0-4.2,3.4-7.6,7.6-7.6s7.6,3.4,7.6,7.6v190.1c0,12.6,10.2,22.8,22.8,22.8s22.8-10.2,22.8-22.8V97.3
			c0-4.2,3.4-7.6,7.6-7.6s7.6,3.4,7.6,7.6v152.1c0,12.6,10.2,22.8,22.8,22.8c12.6,0,22.8-10.2,22.8-22.8v-53.2h30.4
			c4.2,0,7.6-3.4,7.6-7.6S355.9,181,351.7,181z"/>
	</g>
</g>
</svg>
