<?xml version="1.0" encoding="utf-8"?>
<!-- Generator: Adobe Illustrator 23.0.3, SVG Export Plug-In . SVG Version: 6.00 Build 0)  -->
<svg version="1.1" id="圖層_1" xmlns="http://www.w3.org/2000/svg" xmlns:xlink="http://www.w3.org/1999/xlink" x="0px" y="0px"
	 viewBox="0 0 55 55" style="enable-background:new 0 0 55 55;" xml:space="preserve">
<style type="text/css">
	.st0{fill:#FFFFFF;}
	.st1{clip-path:url(#SVGID_2_);}
</style>
<g>
	<path class="st0" d="M38.9,18c0.1,0.1,0.3,0.2,0.6,0.2c0.2,0,0.4-0.1,0.6-0.2l6-6v2c0,0.4,0.4,0.8,0.8,0.8h2.1
		c0.4,0,0.8-0.4,0.8-0.8V6.5c0-0.4-0.4-0.8-0.8-0.8h-7.5c-0.4,0-0.8,0.4-0.8,0.8v2.1c0,0.4,0.4,0.8,0.8,0.8h2l-6,6
		c-0.3,0.3-0.3,0.8,0,1.1L38.9,18z"/>
	<path class="st0" d="M16.2,37.8c-0.3-0.3-0.8-0.3-1.1,0l-6,6v-2c0-0.4-0.4-0.8-0.8-0.8H6.2c-0.4,0-0.8,0.4-0.8,0.8v7.5
		c0,0.4,0.4,0.8,0.8,0.8h7.5c0.4,0,0.8-0.4,0.8-0.8v-2.1c0-0.4-0.4-0.8-0.8-0.8h-2l6-6c0.1-0.1,0.2-0.3,0.2-0.6
		c0-0.2-0.1-0.4-0.2-0.6L16.2,37.8z"/>
</g>
<g>
	<path class="st0" d="M37.3,38.5c-0.1,0.1-0.2,0.3-0.2,0.6c0,0.2,0.1,0.4,0.2,0.6l6,6h-2c-0.4,0-0.8,0.4-0.8,0.8v2.1
		c0,0.4,0.4,0.8,0.8,0.8h7.5c0.4,0,0.8-0.4,0.8-0.8V41c0-0.4-0.4-0.8-0.8-0.8h-2.1c-0.4,0-0.8,0.4-0.8,0.8v2l-6-6
		c-0.3-0.3-0.8-0.3-1.1,0L37.3,38.5z"/>
	<path class="st0" d="M17.6,15.7c0.3-0.3,0.3-0.8,0-1.1l-6-6h2c0.4,0,0.8-0.4,0.8-0.8V5.7c0-0.4-0.4-0.8-0.8-0.8H6.1
		c-0.4,0-0.8,0.4-0.8,0.8v7.5c0,0.4,0.4,0.8,0.8,0.8h2.1C8.6,14,9,13.7,9,13.2v-2l6,6c0.1,0.1,0.3,0.2,0.6,0.2
		c0.2,0,0.4-0.1,0.6-0.2L17.6,15.7z"/>
</g>
<g id="mystic_x5F_light_x5F_rgb_1_">
	<g>
		<g id="彩虹_1_">
			<g>
				<g>
					<g>
						<defs>
							<rect id="SVGID_1_" x="13" y="19.3" width="29.1" height="14.8"/>
						</defs>
						<clipPath id="SVGID_2_">
							<use xlink:href="#SVGID_1_"  style="overflow:visible;"/>
						</clipPath>
						<g class="st1">
							<path class="st0" d="M15.8,33.5c0-0.1,0-0.2,0-0.4s0-0.2,0.1-0.3c0.1-0.3-0.1,0.4,0,0.1c0-0.1,0.1-0.2,0.1-0.4
								c0.2-0.9,0.4-1.9,0.8-2.8c0.9-2.4,2.5-4.7,4.8-6c3.2-1.8,7.7-1.9,11-0.5c2.6,1.1,4.6,3.3,5.7,5.8c0.5,1.1,0.8,2.2,1,3.4
								c0.1,0.2,0.1,0.4,0.1,0.6c0.1,0.4,0-0.3,0,0.2c0,0.1,0,0.3,0.1,0.4c0.1,1.7,2.7,1.8,2.7,0c-0.2-4.8-2.9-9.9-7.2-12.2
								c-3.8-2-8.9-2.3-12.9-0.7c-3.3,1.3-5.8,3.8-7.2,7c-0.9,1.7-1.5,3.7-1.6,5.8C13,35.2,15.7,35.2,15.8,33.5L15.8,33.5z"/>
							<path class="st0" d="M19.5,33.5c0-0.1,0-0.1,0-0.2c-0.1,0.4,0-0.1,0.1-0.3c0.1-0.6,0.3-1.3,0.5-1.9c0.6-1.6,1.8-3.2,3.3-4.1
								c2.2-1.2,5.2-1.3,7.5-0.4c1.8,0.8,3.1,2.3,3.8,4c0.3,0.7,0.5,1.5,0.7,2.3c0,0.1,0.1,0.3,0.1,0.4c0.1,0.2-0.1-0.3,0,0.1
								c0,0.1,0,0.2,0,0.3c0.1,1.7,2.7,1.8,2.7,0c-0.2-3.6-2.2-7.4-5.4-9.1C27.5,21.7,20.6,23.7,18,29c-0.6,1.4-1.1,2.9-1.3,4.4
								C16.7,35.2,19.3,35.2,19.5,33.5L19.5,33.5z"/>
							<path class="st0" d="M22.8,33.5c-0.1,0.7,0.1-0.2,0.1-0.4c0.2-0.5,0.3-0.9,0.6-1.4c0.9-1.5,2.3-2.1,4-2.1
								c1.6,0,3.1,0.7,3.9,2.1c0.2,0.4,0.4,0.8,0.5,1.3c0.1,0.2,0.1,0.4,0.1,0.5c0.1,0.3,0-0.2,0-0.1c0.2,1.6,2.6,1.6,2.5,0
								c-0.4-3.7-3.3-6.4-7-6.4s-6.7,2.7-7.1,6.4C20.2,35,22.6,35,22.8,33.5L22.8,33.5z"/>
						</g>
					</g>
				</g>
			</g>
		</g>
	</g>
</g>
</svg>
