<?xml version="1.0" encoding="utf-8"?>
<!-- Generator: Adobe Illustrator 23.0.3, SVG Export Plug-In . SVG Version: 6.00 Build 0)  -->
<svg version="1.1" id="圖層_1" xmlns="http://www.w3.org/2000/svg" xmlns:xlink="http://www.w3.org/1999/xlink" x="0px" y="0px"
	 viewBox="0 0 120 120" style="enable-background:new 0 0 120 120;" xml:space="preserve">
<style type="text/css">
	.st0{fill:#FA052E;}
	.st1{fill:none;stroke:#FA052E;stroke-width:2.5;stroke-linecap:round;stroke-linejoin:round;stroke-miterlimit:10;}
	.st2{fill:none;stroke:#FFFFFF;stroke-width:3;stroke-linecap:round;stroke-linejoin:round;stroke-miterlimit:10;}
	.st3{fill:#FFFFFF;}
</style>
<g>
	<g>
		<line class="st2" x1="47.6" y1="10.9" x2="10.2" y2="10.9"/>
		<path class="st2" d="M10,10.9c0,11.6,0,23.2,0,34.8"/>
		<path class="st2" d="M110.3,46.8c0-12,0-23.9,0-35.9c-12.5,0-25,0-37.5,0"/>
		<path class="st3" d="M61,15.1L61,15.1c-1.9,0-3.5-1.6-3.5-3.5v0c0-1.9,1.6-3.5,3.5-3.5h0c1.9,0,3.5,1.6,3.5,3.5v0
			C64.5,13.5,62.9,15.1,61,15.1z"/>
		<path class="st3" d="M10,63.1L10,63.1c-1.9,0-3.5-1.6-3.5-3.5v0c0-1.9,1.6-3.5,3.5-3.5h0c1.9,0,3.5,1.6,3.5,3.5v0
			C13.5,61.6,11.9,63.1,10,63.1z"/>
		<path class="st3" d="M110,63.1L110,63.1c-1.9,0-3.5-1.6-3.5-3.5v0c0-1.9,1.6-3.5,3.5-3.5h0c1.9,0,3.5,1.6,3.5,3.5v0
			C113.5,61.6,111.9,63.1,110,63.1z"/>
		<line class="st2" x1="47.6" y1="109.1" x2="10.2" y2="109.1"/>
		<path class="st2" d="M10,109.1c0-11.6,0-23.2,0-34.8"/>
		<path class="st2" d="M110.3,73.2c0,12,0,23.9,0,35.9c-12.5,0-25,0-37.5,0"/>
		<path class="st3" d="M61,104.9L61,104.9c-1.9,0-3.5,1.6-3.5,3.5v0c0,1.9,1.6,3.5,3.5,3.5h0c1.9,0,3.5-1.6,3.5-3.5v0
			C64.5,106.5,62.9,104.9,61,104.9z"/>
	</g>
	<g>
		<line class="st2" x1="60" y1="72.5" x2="60" y2="47.5"/>
		<line class="st2" x1="47.4" y1="60" x2="72.6" y2="60"/>
		<line class="st2" x1="47.5" y1="60" x2="72.5" y2="60"/>
		<line class="st2" x1="60" y1="47.5" x2="60" y2="72.5"/>
	</g>
</g>
</svg>
