<?xml version="1.0" encoding="utf-8"?>
<!-- Generator: Adobe Illustrator 23.0.3, SVG Export Plug-In . SVG Version: 6.00 Build 0)  -->
<svg version="1.1" id="Capa_1" xmlns="http://www.w3.org/2000/svg" xmlns:xlink="http://www.w3.org/1999/xlink" x="0px" y="0px"
	 viewBox="0 0 384 384" style="enable-background:new 0 0 384 384;" xml:space="preserve">
<style type="text/css">
	.st0{fill:#FFFFFF;}
</style>
<g>
	<g>
		<path class="st0" d="M192,41.5c-83.1,0-150.5,67.4-150.5,150.5S108.9,342.5,192,342.5c13.9,0,25.1-11.2,25.1-25.1
			c0-6.5-2.4-12.4-6.5-16.8c-3.9-4.5-6.3-10.2-6.3-16.6c0-13.9,11.2-25.1,25.1-25.1h29.5c46.2,0,83.6-37.5,83.6-83.6
			C342.4,101.4,275,41.5,192,41.5z M100,192c-13.9,0-25.1-11.2-25.1-25.1s11.2-25.1,25.1-25.1s25.1,11.2,25.1,25.1
			S113.9,192,100,192z M150.2,125.1c-13.9,0-25.1-11.2-25.1-25.1S136.3,75,150.2,75c13.9,0,25.1,11.2,25.1,25.1
			S164.1,125.1,150.2,125.1z M233.7,125.1c-13.9,0-25.1-11.2-25.1-25.1S219.9,75,233.7,75s25.1,11.2,25.1,25.1
			S247.6,125.1,233.7,125.1z M283.9,192c-13.9,0-25.1-11.2-25.1-25.1s11.2-25.1,25.1-25.1S309,153,309,166.9S297.8,192,283.9,192z"
			/>
	</g>
</g>
</svg>
