<?xml version="1.0" encoding="utf-8"?>
<!-- Generator: Adobe Illustrator 23.0.3, SVG Export Plug-In . SVG Version: 6.00 Build 0)  -->
<svg version="1.1" id="Capa_1" xmlns="http://www.w3.org/2000/svg" xmlns:xlink="http://www.w3.org/1999/xlink" x="0px" y="0px"
	 viewBox="0 0 384 384" style="enable-background:new 0 0 384 384;" xml:space="preserve">
<style type="text/css">
	.st0{fill:#FFFFFF;}
</style>
<path class="st0" d="M149.8,46.7c-1.6,6.3,2.2,12.7,8.5,14.3L202,72.2c68.1,17.4,109.5,86.8,92.4,155c0,0.1-0.1,0.3-0.1,0.4
	c-0.3,1.1-0.6,2.2-0.9,3.3c0,0.1-0.1,0.2-0.1,0.4c-8.7,29.9-28,55.4-53.8,72c-15.8,10.1-34,16.7-53.5,19.1c-5,0.6-8.9,4.2-10,8.8
	c-0.4,1.4-0.5,2.8-0.3,4.3c0.8,6.5,6.7,11.1,13.1,10.3c10.4-1.3,20.6-3.6,30.4-6.9c0.9-0.1,1.7-0.3,2.6-0.6
	c20.2-7.3,38.8-19.1,54.3-34.2c0.8-0.8,1.6-1.5,2.3-2.3c0.2-0.2,0.4-0.4,0.5-0.6c16.8-17.1,29.2-37.9,36.3-61c0,0,0,0,0,0
	c0.2-0.7,0.4-1.5,0.7-2.2c0.2-0.6,0.3-1.2,0.5-1.8c0.1-0.4,0.2-0.8,0.3-1.2c0.1-0.5,0.3-1,0.4-1.5l0.2-0.7c0,0,0,0,0,0
	c9.7-39,3.8-79.4-16.7-114C280,84,247.1,59.3,207.9,49.3l-43.7-11.1C157.9,36.6,151.4,40.4,149.8,46.7z"/>
<path class="st0" d="M249.1,265.1c11-12.3,19-27.4,23.1-43.5l0.1-0.2c0,0,0-0.1,0-0.1c6.7-26.8,2.7-54.7-11.5-78.4
	c-14.2-23.8-36.9-40.7-63.8-47.6l-19.2-4.9c-6.3-1.6-12.7,2.2-14.3,8.5c-1.6,6.3,2.2,12.7,8.5,14.3l19.2,4.9
	c43,11,69.1,54.8,58.2,97.6c-6.3,24.7-24.2,45.2-48,54.8c-3.6,1.5-6.1,4.5-7,8c-0.6,2.3-0.5,4.9,0.5,7.3c2.4,6,9.3,9,15.4,6.5
	C225,286.5,238.4,277,249.1,265.1z"/>
<g>
	<polygon class="st0" points="188.9,142.4 121.9,142.4 95.1,238.8 121.9,238.8 99.1,321 107.2,321 184.8,224.5 145.5,224.5 	"/>
</g>
</svg>
